<?xml version="1.0" encoding="utf-8"?>
<!-- Generator: Adobe Illustrator 16.0.0, SVG Export Plug-In . SVG Version: 6.00 Build 0)  -->
<!DOCTYPE svg PUBLIC "-//W3C//DTD SVG 1.1//EN" "http://www.w3.org/Graphics/SVG/1.1/DTD/svg11.dtd">
<svg version="1.1" id="Layer_1" xmlns="http://www.w3.org/2000/svg" xmlns:xlink="http://www.w3.org/1999/xlink" x="0px" y="0px"
	 width="35px" height="48px" viewBox="0 0 35 48" enable-background="new 0 0 35 48" xml:space="preserve">
<g>
	
		<rect x="1" y="23.803" fill="#8D8D8D" stroke="#FFFFFF" stroke-width="0.0278" stroke-miterlimit="282" width="9.542" height="3.69"/>
	<path fill="#8D8D8D" d="M31.436,14.55l-2.799,2.766c-2.83-2.766-6.088-4.15-9.771-4.15c-3.226,0-5.923,1.054-8.095,3.128
		c-2.14,2.075-3.224,4.676-3.224,7.805c0,2.733,1.052,5.203,3.125,7.376c2.104,2.207,4.968,3.293,8.652,3.293
		c5.493,0,8.95-2.405,10.364-7.209h-7.438v-3.757H34c0,1.878-0.098,3.393-0.363,4.513c-0.263,1.15-0.787,2.404-1.578,3.755
		c-0.789,1.35-1.844,2.567-3.158,3.653c-1.35,1.055-2.765,1.845-4.276,2.308c-1.479,0.458-3.289,0.688-5.397,0.688
		c-4.77,0-8.553-1.516-11.416-4.512c-2.829-2.997-4.243-6.422-4.243-10.274c0-4.084,1.447-7.542,4.341-10.373
		c2.929-2.865,6.416-4.281,10.563-4.281c2.467,0,4.704,0.361,6.743,1.085C27.223,11.124,29.296,12.507,31.436,14.55L31.436,14.55z"
		/>
</g>
</svg>
