<?xml version="1.0" encoding="utf-8"?>
<!-- Generator: Adobe Illustrator 16.0.0, SVG Export Plug-In . SVG Version: 6.00 Build 0)  -->
<!DOCTYPE svg PUBLIC "-//W3C//DTD SVG 1.1//EN" "http://www.w3.org/Graphics/SVG/1.1/DTD/svg11.dtd">
<svg version="1.1" id="Layer_1" xmlns="http://www.w3.org/2000/svg" xmlns:xlink="http://www.w3.org/1999/xlink" x="0px" y="0px"
	 width="54px" height="48px" viewBox="-8.5 0 54 48" enable-background="new -8.5 0 54 48" xml:space="preserve">
<g>
	
		<rect x="10.5" y="23.56" fill="#727272" stroke="#FFFFFF" stroke-width="0.0278" stroke-miterlimit="282" width="9.542" height="3.69"/>
	<path fill="#727272" d="M40.936,14.307l-2.799,2.766c-2.83-2.766-6.088-4.15-9.771-4.15c-3.226,0-5.923,1.054-8.094,3.128
		c-2.14,2.075-3.224,4.676-3.224,7.805c0,2.733,1.051,5.203,3.125,7.377c2.105,2.207,4.967,3.293,8.652,3.293
		c5.494,0,8.951-2.406,10.365-7.21h-7.438v-3.757H43.5c0,1.879-0.098,3.393-0.363,4.513c-0.263,1.151-0.787,2.404-1.578,3.755
		c-0.789,1.35-1.844,2.568-3.159,3.654c-1.349,1.054-2.764,1.844-4.276,2.307c-1.48,0.458-3.289,0.688-5.397,0.688
		c-4.771,0-8.553-1.515-11.415-4.511c-2.83-2.997-4.244-6.422-4.244-10.274c0-4.084,1.447-7.542,4.341-10.373
		c2.929-2.865,6.416-4.281,10.563-4.281c2.467,0,4.705,0.361,6.744,1.085C36.723,10.881,38.796,12.264,40.936,14.307L40.936,14.307z
		"/>
</g>
<text transform="matrix(1 0 0 1 -6.5 38.4785)" fill="#727272" font-family="'MyriadPro-Bold'" font-size="25">μ</text>
</svg>
