<?xml version="1.0" encoding="utf-8"?>
<!-- Generator: Adobe Illustrator 16.0.0, SVG Export Plug-In . SVG Version: 6.00 Build 0)  -->
<!DOCTYPE svg PUBLIC "-//W3C//DTD SVG 1.1//EN" "http://www.w3.org/Graphics/SVG/1.1/DTD/svg11.dtd">
<svg version="1.1" id="Layer_1" xmlns="http://www.w3.org/2000/svg" xmlns:xlink="http://www.w3.org/1999/xlink" x="0px" y="0px"
	 width="37px" height="48px" viewBox="0 0 37 48" enable-background="new 0 0 37 48" xml:space="preserve">
<g>
	
		<rect x="1" y="23.542" fill="#FFFFFF" stroke="#FFFFFF" stroke-width="0.0278" stroke-miterlimit="282" width="10.409" height="4.024"/>
	<path fill="#FFFFFF" d="M34.201,13.447l-3.051,3.018c-3.087-3.018-6.641-4.526-10.661-4.526c-3.517,0-6.46,1.149-8.829,3.413
		c-2.333,2.263-3.517,5.101-3.517,8.514c0,2.982,1.148,5.676,3.41,8.047c2.297,2.407,5.42,3.593,9.439,3.593
		c5.993,0,9.763-2.623,11.307-7.867h-8.112v-4.096H37c0,2.048-0.107,3.701-0.396,4.922c-0.286,1.257-0.859,2.622-1.722,4.095
		c-0.861,1.473-2.011,2.803-3.445,3.988c-1.472,1.149-3.016,2.012-4.666,2.515c-1.616,0.503-3.589,0.754-5.887,0.754
		c-5.205,0-9.332-1.652-12.455-4.921C5.343,31.626,3.8,27.89,3.8,23.687c0-4.455,1.579-8.227,4.737-11.317
		c3.195-3.126,7-4.67,11.522-4.67c2.692,0,5.133,0.395,7.356,1.185C29.606,9.71,31.868,11.22,34.201,13.447L34.201,13.447z"/>
</g>
<g>
	
		<rect x="0.5" y="23.548" fill="#FFFFFF" stroke="#FFFFFF" stroke-width="0.0278" stroke-miterlimit="282" width="10.12" height="3.913"/>
	<path fill="#FFFFFF" d="M32.779,13.734l-2.967,2.934c-3.001-2.934-6.456-4.401-10.364-4.401c-3.419,0-6.281,1.118-8.584,3.318
		c-2.269,2.2-3.419,4.959-3.419,8.278c0,2.899,1.116,5.518,3.315,7.824c2.233,2.341,5.269,3.493,9.177,3.493
		c5.827,0,9.492-2.551,10.993-7.648h-7.888v-3.983H35.5c0,1.992-0.104,3.598-0.385,4.786c-0.278,1.222-0.835,2.55-1.674,3.981
		c-0.837,1.432-1.955,2.725-3.35,3.877c-1.431,1.118-2.932,1.956-4.536,2.445c-1.571,0.488-3.489,0.732-5.724,0.732
		c-5.06,0-9.072-1.606-12.108-4.784c-3.001-3.179-4.501-6.812-4.501-10.897c0-4.331,1.535-7.999,4.605-11.002
		c3.106-3.039,6.805-4.541,11.202-4.541c2.617,0,4.99,0.384,7.152,1.152C28.312,10.101,30.511,11.568,32.779,13.734L32.779,13.734z"
		/>
</g>
</svg>
