<?xml version="1.0" encoding="UTF-8" standalone="no"?>
<!-- Generator: Adobe Illustrator 16.0.0, SVG Export Plug-In . SVG Version: 6.00 Build 0)  -->

<svg
   xmlns:dc="http://purl.org/dc/elements/1.1/"
   xmlns:cc="http://creativecommons.org/ns#"
   xmlns:rdf="http://www.w3.org/1999/02/22-rdf-syntax-ns#"
   xmlns:svg="http://www.w3.org/2000/svg"
   xmlns="http://www.w3.org/2000/svg"
   xmlns:sodipodi="http://sodipodi.sourceforge.net/DTD/sodipodi-0.dtd"
   xmlns:inkscape="http://www.inkscape.org/namespaces/inkscape"
   version="1.1"
   id="Layer_1"
   x="0px"
   y="0px"
   width="19"
   height="24"
   viewBox="0 0 19 24"
   enable-background="new 0 0 37 48"
   xml:space="preserve"
   inkscape:version="0.91 r13725"
   sodipodi:docname="stat_notify_received-xhdpi.svg"><metadata
     id="metadata19"><rdf:RDF><cc:Work
         rdf:about=""><dc:format>image/svg+xml</dc:format><dc:type
           rdf:resource="http://purl.org/dc/dcmitype/StillImage" /><dc:title></dc:title></cc:Work></rdf:RDF></metadata><defs
     id="defs17" /><sodipodi:namedview
     pagecolor="#ffffff"
     bordercolor="#666666"
     borderopacity="1"
     objecttolerance="10"
     gridtolerance="10"
     guidetolerance="10"
     inkscape:pageopacity="0"
     inkscape:pageshadow="2"
     inkscape:window-width="1615"
     inkscape:window-height="1026"
     id="namedview15"
     showgrid="false"
     inkscape:zoom="4.9166667"
     inkscape:cx="19.110169"
     inkscape:cy="24"
     inkscape:window-x="65"
     inkscape:window-y="24"
     inkscape:window-maximized="1"
     inkscape:current-layer="Layer_1" /><g
     id="g3"
     transform="matrix(0.49296295,0,0,0.49296295,0.24647078,0.188694)"><rect
       x="1"
       y="23.542"
       stroke-miterlimit="282"
       width="10.409"
       height="4.0240002"
       id="rect5"
       style="fill:#ffffff;stroke:#ffffff;stroke-width:0.0278;stroke-miterlimit:282" /><path
       d="m 34.201,13.447 -3.051,3.018 c -3.087,-3.018 -6.641,-4.526 -10.661,-4.526 -3.517,0 -6.46,1.149 -8.829,3.413 -2.333,2.263 -3.517,5.101 -3.517,8.514 0,2.982 1.148,5.676 3.41,8.047 2.297,2.407 5.42,3.593 9.439,3.593 5.993,0 9.763,-2.623 11.307,-7.867 l -8.112,0 0,-4.096 12.813,0 c 0,2.048 -0.107,3.701 -0.396,4.922 -0.286,1.257 -0.859,2.622 -1.722,4.095 -0.861,1.473 -2.011,2.803 -3.445,3.988 -1.472,1.149 -3.016,2.012 -4.666,2.515 -1.616,0.503 -3.589,0.754 -5.887,0.754 -5.205,0 -9.332,-1.652 -12.455,-4.921 C 5.343,31.626 3.8,27.89 3.8,23.687 3.8,19.232 5.379,15.46 8.537,12.37 c 3.195,-3.126 7,-4.67 11.522,-4.67 2.692,0 5.133,0.395 7.356,1.185 2.191,0.825 4.453,2.335 6.786,4.562 l 0,0 z"
       id="path7"
       inkscape:connector-curvature="0"
       style="fill:#ffffff" /></g><g
     id="g9"
     transform="matrix(0.49296295,0,0,0.49296295,0.24647078,0.188694)"><rect
       x="0.5"
       y="23.548"
       stroke-miterlimit="282"
       width="10.12"
       height="3.9130001"
       id="rect11"
       style="fill:#ffffff;stroke:#ffffff;stroke-width:0.0278;stroke-miterlimit:282" /><path
       d="m 32.779,13.734 -2.967,2.934 c -3.001,-2.934 -6.456,-4.401 -10.364,-4.401 -3.419,0 -6.281,1.118 -8.584,3.318 -2.269,2.2 -3.419,4.959 -3.419,8.278 0,2.899 1.116,5.518 3.315,7.824 2.233,2.341 5.269,3.493 9.177,3.493 5.827,0 9.492,-2.551 10.993,-7.648 l -7.888,0 0,-3.983 12.458,0 c 0,1.992 -0.104,3.598 -0.385,4.786 -0.278,1.222 -0.835,2.55 -1.674,3.981 -0.837,1.432 -1.955,2.725 -3.35,3.877 -1.431,1.118 -2.932,1.956 -4.536,2.445 -1.571,0.488 -3.489,0.732 -5.724,0.732 -5.06,0 -9.072,-1.606 -12.108,-4.784 -3.001,-3.179 -4.501,-6.812 -4.501,-10.897 0,-4.331 1.535,-7.999 4.605,-11.002 3.106,-3.039 6.805,-4.541 11.202,-4.541 2.617,0 4.99,0.384 7.152,1.152 2.131,0.803 4.33,2.27 6.598,4.436 l 0,0 z"
       id="path13"
       inkscape:connector-curvature="0"
       style="fill:#ffffff" /></g></svg>